<svg version="1.1" xmlns="http://www.w3.org/2000/svg" xmlns:xlink="http://www.w3.org/1999/xlink" width="581" height="274.75"><defs></defs><g><g transform="translate(-10,4.5) scale(1,1)"><path fill="#ffffff" stroke="none" d="M 192.32072727272728 159.68 C 192.32072727272728 154.886167936 196.20656959767274 151 201 151 C 205.79343040232726 151 209.67927272727272 154.886167936 209.67927272727272 159.68 C 209.67927272727272 164.47383206400002 205.79343040232726 168.36 201 168.36 C 196.20656959767274 168.36 192.32072727272728 164.47383206400002 192.32072727272728 159.68 Z"></path></g><g transform="translate(-10,4.5) scale(1,1)"><path fill="none" stroke="#000000" d="M 192.32072727272728 159.68 C 192.32072727272728 154.886167936 196.20656959767274 151 201 151 C 205.79343040232726 151 209.67927272727272 154.886167936 209.67927272727272 159.68 C 209.67927272727272 164.47383206400002 205.79343040232726 168.36 201 168.36 C 196.20656959767274 168.36 192.32072727272728 164.47383206400002 192.32072727272728 159.68 Z" stroke-miterlimit="10"></path></g><g transform="translate(-10,4.5) scale(1,1)"><path fill="none" stroke="#000000" d="M 201 168.36 L 201 185.64" stroke-miterlimit="10"></path></g><g transform="translate(-10,4.5) scale(1,1)"><path fill="none" stroke="#000000" d="M 191.81018181818183 174.84 L 210.18981818181817 174.84" stroke-miterlimit="10"></path></g><g transform="translate(-10,4.5) scale(1,1)"><path fill="none" stroke="#000000" d="M 201 185.64 L 188.23636363636365 203" stroke-miterlimit="10"></path></g><g transform="translate(-10,4.5) scale(1,1)"><path fill="none" stroke="#000000" d="M 201 185.64 L 213.76363636363635 203" stroke-miterlimit="10"></path></g><g transform="translate(-10,4.5) scale(1,1)"><g><path fill="none" stroke="none"></path><text fill="#000000" stroke="none" font-family="Arial" font-size="13px" font-style="normal" font-weight="bold" text-decoration="none" x="176.5" y="223.5">Modeller</text></g></g><g transform="translate(-10,4.5) scale(1,1)"><path fill="#C0C0C0" stroke="none" d="M 420 109 C 420 99.6111584 457.6080768 92 504 92 C 550.3919232 92 588 99.6111584 588 109 C 588 118.3888416 550.3919232 126 504 126 C 457.6080768 126 420 118.3888416 420 109 Z" opacity="0.2"></path></g><g transform="translate(-10,4.5) scale(1,1)"><path fill="#ffffff" stroke="none" d="M 413 102 C 413 92.6111584 450.6080768 85 497 85 C 543.3919232 85 581 92.6111584 581 102 C 581 111.3888416 543.3919232 119 497 119 C 450.6080768 119 413 111.3888416 413 102 Z"></path></g><g transform="translate(-10,4.5) scale(1,1)"><path fill="none" stroke="#000000" d="M 413 102 C 413 92.6111584 450.6080768 85 497 85 C 543.3919232 85 581 92.6111584 581 102 C 581 111.3888416 543.3919232 119 497 119 C 450.6080768 119 413 111.3888416 413 102 Z" stroke-miterlimit="10"></path></g><g transform="translate(-10,4.5) scale(1,1)"><g><path fill="none" stroke="none"></path><text fill="#000000" stroke="none" font-family="Arial" font-size="13px" font-style="normal" font-weight="bold" text-decoration="none" x="446" y="109">Vytvori novy filter</text></g></g><g transform="translate(-10,4.5) scale(1,1)"><path fill="#C0C0C0" stroke="none" d="M 78 109 C 78 99.6111584 136.20297599999998 92 208 92 C 279.797024 92 338 99.6111584 338 109 C 338 118.3888416 279.797024 126 208 126 C 136.20297599999998 126 78 118.3888416 78 109 Z" opacity="0.2"></path></g><g transform="translate(-10,4.5) scale(1,1)"><path fill="#ffffff" stroke="none" d="M 71 102 C 71 92.6111584 129.20297599999998 85 201 85 C 272.797024 85 331 92.6111584 331 102 C 331 111.3888416 272.797024 119 201 119 C 129.20297599999998 119 71 111.3888416 71 102 Z"></path></g><g transform="translate(-10,4.5) scale(1,1)"><path fill="none" stroke="#000000" d="M 71 102 C 71 92.6111584 129.20297599999998 85 201 85 C 272.797024 85 331 92.6111584 331 102 C 331 111.3888416 272.797024 119 201 119 C 129.20297599999998 119 71 111.3888416 71 102 Z" stroke-miterlimit="10"></path></g><g transform="translate(-10,4.5) scale(1,1)"><g><path fill="none" stroke="none"></path><text fill="#000000" stroke="none" font-family="Arial" font-size="13px" font-style="normal" font-weight="bold" text-decoration="none" x="121" y="109">Pouzitim existujucich filtrov</text></g></g><g transform="translate(-10,4.5) scale(1,1)"><path fill="#C0C0C0" stroke="none" d="M 27 44 C 27 34.6111584 108.0364512 27 208 27 C 307.9635488 27 389 34.6111584 389 44 C 389 53.3888416 307.9635488 61 208 61 C 108.0364512 61 27 53.3888416 27 44 Z" opacity="0.2"></path></g><g transform="translate(-10,4.5) scale(1,1)"><path fill="#ffffff" stroke="none" d="M 20 37 C 20 27.6111584 101.0364512 20 201 20 C 300.9635488 20 382 27.6111584 382 37 C 382 46.3888416 300.9635488 54 201 54 C 101.0364512 54 20 46.3888416 20 37 Z"></path></g><g transform="translate(-10,4.5) scale(1,1)"><path fill="none" stroke="#000000" d="M 20 37 C 20 27.6111584 101.0364512 20 201 20 C 300.9635488 20 382 27.6111584 382 37 C 382 46.3888416 300.9635488 54 201 54 C 101.0364512 54 20 46.3888416 20 37 Z" stroke-miterlimit="10"></path></g><g transform="translate(-10,4.5) scale(1,1)"><g><path fill="none" stroke="none"></path><text fill="#000000" stroke="none" font-family="Arial" font-size="13px" font-style="normal" font-weight="bold" text-decoration="none" x="88.5" y="44">Pouzitim predprogramovanych operacii</text></g></g><g transform="translate(-10,4.5) scale(1,1)"><path fill="none" stroke="#000000" d="M 383 37.46192893401015 L 398 37.5 L 469.37209302325584 84" stroke-miterlimit="10" stroke-dasharray="3"></path></g><g transform="translate(-10,4.5) scale(1,1)"><path fill="none" stroke="#000000" d="M 458.55926962460205 81.97939361835977 L 469.37209302325584 84 L 463.1550567488618 74.92539477647271" stroke-miterlimit="10"></path></g><g transform="translate(-10,4.5) scale(1,1)"><g><path fill="none" stroke="none"></path><text fill="#000000" stroke="none" font-family="Arial" font-size="13px" font-style="normal" font-weight="normal" text-decoration="none" x="387" y="18.5">«include»</text></g></g><g transform="translate(-10,4.5) scale(1,1)"><path fill="none" stroke="#000000" d="M 332 102.33248730964468 L 398 102.5 L 412 102.42929292929293" stroke-miterlimit="10" stroke-dasharray="3"></path></g><g transform="translate(-10,4.5) scale(1,1)"><path fill="none" stroke="#000000" d="M 401.85871467216924 106.6900829850836 L 412 102.42929292929293 L 401.81619483308145 98.27115484569796" stroke-miterlimit="10"></path></g><g transform="translate(-10,4.5) scale(1,1)"><g><path fill="none" stroke="none"></path><text fill="#000000" stroke="none" font-family="Arial" font-size="13px" font-style="normal" font-weight="normal" text-decoration="none" x="370" y="79.5">«include»</text></g></g><g transform="translate(-10,4.5) scale(1,1)"><path fill="none" stroke="#000000" d="M 233.5 180.09137055837564 L 398 135 L 443 120" stroke-miterlimit="10"></path></g><g transform="translate(-10,4.5) scale(1,1)"><path fill="#C0C0C0" stroke="none" d="M 440.5 185.25 C 440.5 175.8611584 468.9299152 168.25 504 168.25 C 539.0700848 168.25 567.5 175.8611584 567.5 185.25 C 567.5 194.6388416 539.0700848 202.25 504 202.25 C 468.9299152 202.25 440.5 194.6388416 440.5 185.25 Z" opacity="0.2"></path></g><g transform="translate(-10,4.5) scale(1,1)"><path fill="#ffffff" stroke="none" d="M 433.5 178.25 C 433.5 168.8611584 461.9299152 161.25 497 161.25 C 532.0700848 161.25 560.5 168.8611584 560.5 178.25 C 560.5 187.6388416 532.0700848 195.25 497 195.25 C 461.9299152 195.25 433.5 187.6388416 433.5 178.25 Z"></path></g><g transform="translate(-10,4.5) scale(1,1)"><path fill="none" stroke="#000000" d="M 433.5 178.25 C 433.5 168.8611584 461.9299152 161.25 497 161.25 C 532.0700848 161.25 560.5 168.8611584 560.5 178.25 C 560.5 187.6388416 532.0700848 195.25 497 195.25 C 461.9299152 195.25 433.5 187.6388416 433.5 178.25 Z" stroke-miterlimit="10"></path></g><g transform="translate(-10,4.5) scale(1,1)"><g><path fill="none" stroke="none"></path><text fill="#000000" stroke="none" font-family="Arial" font-size="13px" font-style="normal" font-weight="bold" text-decoration="none" x="458.5" y="185.25">Zmazat Filter</text></g></g><g transform="translate(-10,4.5) scale(1,1)"><path fill="none" stroke="#000000" d="M 233.5 187.30901015228426 L 398 178.75 L 432.5 178.48863636363637" stroke-miterlimit="10"></path></g><g transform="translate(-10,4.5) scale(1,1)"><path fill="#C0C0C0" stroke="none" d="M 441 250.25 C 441 240.8611584 469.2060576 233.25 504 233.25 C 538.7939424 233.25 567 240.8611584 567 250.25 C 567 259.6388416 538.7939424 267.25 504 267.25 C 469.2060576 267.25 441 259.6388416 441 250.25 Z" opacity="0.2"></path></g><g transform="translate(-10,4.5) scale(1,1)"><path fill="#ffffff" stroke="none" d="M 434 243.25 C 434 233.8611584 462.2060576 226.25 497 226.25 C 531.7939424 226.25 560 233.8611584 560 243.25 C 560 252.6388416 531.7939424 260.25 497 260.25 C 462.2060576 260.25 434 252.6388416 434 243.25 Z"></path></g><g transform="translate(-10,4.5) scale(1,1)"><path fill="none" stroke="#000000" d="M 434 243.25 C 434 233.8611584 462.2060576 226.25 497 226.25 C 531.7939424 226.25 560 233.8611584 560 243.25 C 560 252.6388416 531.7939424 260.25 497 260.25 C 462.2060576 260.25 434 252.6388416 434 243.25 Z" stroke-miterlimit="10"></path></g><g transform="translate(-10,4.5) scale(1,1)"><g><path fill="none" stroke="none"></path><text fill="#000000" stroke="none" font-family="Arial" font-size="13px" font-style="normal" font-weight="bold" text-decoration="none" x="460" y="250.25">Upravit Filter</text></g></g><g transform="translate(-10,4.5) scale(1,1)"><path fill="none" stroke="#000000" d="M 233.5 198.03236040609136 L 398 243.75 L 433 243.4848484848485" stroke-miterlimit="10"></path></g></g></svg>