<svg version="1.1" xmlns="http://www.w3.org/2000/svg" xmlns:xlink="http://www.w3.org/1999/xlink" width="377" height="587"><defs></defs><g><g transform="translate(-10,-10) scale(1,1)"><path fill="#ffffff" stroke="none" d="M 196 36.5 C 196 31.2532944 200.2532944 27 205.5 27 C 210.7467056 27 215 31.2532944 215 36.5 C 215 41.7467056 210.7467056 46 205.5 46 C 200.2532944 46 196 41.7467056 196 36.5 Z"></path></g><g transform="translate(-10,-10) scale(1,1)"><path fill="#000000" stroke="none" d="M 189 29.5 C 189 24.2532944 193.2532944 20 198.5 20 C 203.7467056 20 208 24.2532944 208 29.5 C 208 34.7467056 203.7467056 39 198.5 39 C 193.2532944 39 189 34.7467056 189 29.5 Z"></path></g><g transform="translate(-10,-10) scale(1,1)"><path fill="#C0C0C0" stroke="none" d="M 50.5 147 L 360.5 147 Q 370.5 147 370.5 157 L 370.5 176 Q 370.5 186 360.5 186 L 50.5 186 Q 40.5 186 40.5 176 L 40.5 157 Q 40.5 147 50.5 147 Z" opacity="0.2"></path></g><g transform="translate(-10,-10) scale(1,1)"><path fill="#ffffff" stroke="none" d="M 43.5 140 L 353.5 140 Q 363.5 140 363.5 150 L 363.5 169 Q 363.5 179 353.5 179 L 43.5 179 Q 33.5 179 33.5 169 L 33.5 150 Q 33.5 140 43.5 140 Z"></path></g><g transform="translate(-10,-10) scale(1,1)"><path fill="none" stroke="#000000" d="M 43.5 140 L 353.5 140 Q 363.5 140 363.5 150 L 363.5 169 Q 363.5 179 353.5 179 L 43.5 179 Q 33.5 179 33.5 169 L 33.5 150 Q 33.5 140 43.5 140 Z" stroke-miterlimit="10"></path></g><g transform="translate(-10,-10) scale(1,1)"><g><path fill="none" stroke="none"></path><text fill="#000000" stroke="none" font-family="Arial" font-size="13px" font-style="normal" font-weight="bold" text-decoration="none" x="49.5" y="159.5">Vyber aktivne modely pre danu vystupnu premennu</text></g></g><g transform="translate(-10,-10) scale(1,1)"><path fill="#C0C0C0" stroke="none" d="M 129 77 L 282 77 Q 292 77 292 87 L 292 106 Q 292 116 282 116 L 129 116 Q 119 116 119 106 L 119 87 Q 119 77 129 77 Z" opacity="0.2"></path></g><g transform="translate(-10,-10) scale(1,1)"><path fill="#ffffff" stroke="none" d="M 122 70 L 275 70 Q 285 70 285 80 L 285 99 Q 285 109 275 109 L 122 109 Q 112 109 112 99 L 112 80 Q 112 70 122 70 Z"></path></g><g transform="translate(-10,-10) scale(1,1)"><path fill="none" stroke="#000000" d="M 122 70 L 275 70 Q 285 70 285 80 L 285 99 Q 285 109 275 109 L 122 109 Q 112 109 112 99 L 112 80 Q 112 70 122 70 Z" stroke-miterlimit="10"></path></g><g transform="translate(-10,-10) scale(1,1)"><g><path fill="none" stroke="none"></path><text fill="#000000" stroke="none" font-family="Arial" font-size="13px" font-style="normal" font-weight="bold" text-decoration="none" x="122.5" y="89.5">Vyber vystupnu premennu</text></g></g><g transform="translate(-10,-10) scale(1,1)"><path fill="#C0C0C0" stroke="none" d="M 97 217 L 314 217 Q 324 217 324 227 L 324 246 Q 324 256 314 256 L 97 256 Q 87 256 87 246 L 87 227 Q 87 217 97 217 Z" opacity="0.2"></path></g><g transform="translate(-10,-10) scale(1,1)"><path fill="#ffffff" stroke="none" d="M 90 210 L 307 210 Q 317 210 317 220 L 317 239 Q 317 249 307 249 L 90 249 Q 80 249 80 239 L 80 220 Q 80 210 90 210 Z"></path></g><g transform="translate(-10,-10) scale(1,1)"><path fill="none" stroke="#000000" d="M 90 210 L 307 210 Q 317 210 317 220 L 317 239 Q 317 249 307 249 L 90 249 Q 80 249 80 239 L 80 220 Q 80 210 90 210 Z" stroke-miterlimit="10"></path></g><g transform="translate(-10,-10) scale(1,1)"><g><path fill="none" stroke="none"></path><text fill="#000000" stroke="none" font-family="Arial" font-size="13px" font-style="normal" font-weight="bold" text-decoration="none" x="91.5" y="229.5">Pre kazdy usek vyber najlepsi model</text></g></g><g transform="translate(-10,-10) scale(1,1)"><path fill="none" stroke="#000000" d="M 198.58333333333334 110 L 199 125 L 198.58823529411765 139" stroke-miterlimit="10"></path></g><g transform="translate(-10,-10) scale(1,1)"><path fill="none" stroke="#000000" d="M 194.67931008591148 128.71796208348508 L 198.58823529411765 139 L 203.09470650742892 128.96547374294147" stroke-miterlimit="10"></path></g><g transform="translate(-10,-10) scale(1,1)"><path fill="none" stroke="#000000" d="M 198.58333333333334 180 L 199 195 L 198.58823529411765 209" stroke-miterlimit="10"></path></g><g transform="translate(-10,-10) scale(1,1)"><path fill="none" stroke="#000000" d="M 194.67931008591148 198.71796208348508 L 198.58823529411765 209 L 203.09470650742892 198.96547374294147" stroke-miterlimit="10"></path></g><g transform="translate(-10,-10) scale(1,1)"><path fill="none" stroke="#000000" d="M 198.42307692307693 40 L 199 55 L 198.58823529411765 69" stroke-miterlimit="10"></path></g><g transform="translate(-10,-10) scale(1,1)"><path fill="none" stroke="#000000" d="M 194.67931008591148 58.71796208348509 L 198.58823529411765 69 L 203.09470650742892 58.965473742941484" stroke-miterlimit="10"></path></g><g transform="translate(-10,-10) scale(1,1)"><path fill="#C0C0C0" stroke="none" d="M 74.5 287 L 336.5 287 Q 346.5 287 346.5 297 L 346.5 316 Q 346.5 326 336.5 326 L 74.5 326 Q 64.5 326 64.5 316 L 64.5 297 Q 64.5 287 74.5 287 Z" opacity="0.2"></path></g><g transform="translate(-10,-10) scale(1,1)"><path fill="#ffffff" stroke="none" d="M 67.5 280 L 329.5 280 Q 339.5 280 339.5 290 L 339.5 309 Q 339.5 319 329.5 319 L 67.5 319 Q 57.5 319 57.5 309 L 57.5 290 Q 57.5 280 67.5 280 Z"></path></g><g transform="translate(-10,-10) scale(1,1)"><path fill="none" stroke="#000000" d="M 67.5 280 L 329.5 280 Q 339.5 280 339.5 290 L 339.5 309 Q 339.5 319 329.5 319 L 67.5 319 Q 57.5 319 57.5 309 L 57.5 290 Q 57.5 280 67.5 280 Z" stroke-miterlimit="10"></path></g><g transform="translate(-10,-10) scale(1,1)"><g><path fill="none" stroke="none"></path><text fill="#000000" stroke="none" font-family="Arial" font-size="13px" font-style="normal" font-weight="bold" text-decoration="none" x="71" y="299.5">Vybranym modelom vypocitaj data pre usek</text></g></g><g transform="translate(-10,-10) scale(1,1)"><path fill="#C0C0C0" stroke="none" d="M 37 393 L 180 393 Q 190 393 190 403 L 190 422 Q 190 432 180 432 L 37 432 Q 27 432 27 422 L 27 403 Q 27 393 37 393 Z" opacity="0.2"></path></g><g transform="translate(-10,-10) scale(1,1)"><path fill="#ffffff" stroke="none" d="M 30 386 L 173 386 Q 183 386 183 396 L 183 415 Q 183 425 173 425 L 30 425 Q 20 425 20 415 L 20 396 Q 20 386 30 386 Z"></path></g><g transform="translate(-10,-10) scale(1,1)"><path fill="none" stroke="#000000" d="M 30 386 L 173 386 Q 183 386 183 396 L 183 415 Q 183 425 173 425 L 30 425 Q 20 425 20 415 L 20 396 Q 20 386 30 386 Z" stroke-miterlimit="10"></path></g><g transform="translate(-10,-10) scale(1,1)"><g><path fill="none" stroke="none"></path><text fill="#000000" stroke="none" font-family="Arial" font-size="13px" font-style="normal" font-weight="bold" text-decoration="none" x="30" y="405.5">Uloz vypocitane hodnoty</text></g></g><g transform="translate(-10,-10) scale(1,1)"><path fill="#ffffff" stroke="none" d="M 174 357 L 237 357 Q 240 357 240 360 L 240 359 Q 240 362 237 362 L 174 362 Q 171 362 171 359 L 171 360 Q 171 357 174 357 Z"></path></g><g transform="translate(-10,-10) scale(1,1)"><path fill="#000000" stroke="none" d="M 167 350 L 230 350 Q 233 350 233 353 L 233 353 Q 233 356 230 356 L 167 356 Q 164 356 164 353 L 164 353 Q 164 350 167 350 Z"></path></g><g transform="translate(-10,-10) scale(1,1)"><path fill="#C0C0C0" stroke="none" d="M 231 393 L 374 393 Q 384 393 384 403 L 384 422 Q 384 432 374 432 L 231 432 Q 221 432 221 422 L 221 403 Q 221 393 231 393 Z" opacity="0.2"></path></g><g transform="translate(-10,-10) scale(1,1)"><path fill="#ffffff" stroke="none" d="M 224 386 L 367 386 Q 377 386 377 396 L 377 415 Q 377 425 367 425 L 224 425 Q 214 425 214 415 L 214 396 Q 214 386 224 386 Z"></path></g><g transform="translate(-10,-10) scale(1,1)"><path fill="none" stroke="#000000" d="M 224 386 L 367 386 Q 377 386 377 396 L 377 415 Q 377 425 367 425 L 224 425 Q 214 425 214 415 L 214 396 Q 214 386 224 386 Z" stroke-miterlimit="10"></path></g><g transform="translate(-10,-10) scale(1,1)"><g><path fill="none" stroke="none"></path><text fill="#000000" stroke="none" font-family="Arial" font-size="13px" font-style="normal" font-weight="bold" text-decoration="none" x="226" y="405.5">Zapis do reporting logov</text></g></g><g transform="translate(-10,-10) scale(1,1)"><path fill="#C0C0C0" stroke="none" d="M 156 499 L 255 499 Q 265 499 265 509 L 265 528 Q 265 538 255 538 L 156 538 Q 146 538 146 528 L 146 509 Q 146 499 156 499 Z" opacity="0.2"></path></g><g transform="translate(-10,-10) scale(1,1)"><path fill="#ffffff" stroke="none" d="M 149 492 L 248 492 Q 258 492 258 502 L 258 521 Q 258 531 248 531 L 149 531 Q 139 531 139 521 L 139 502 Q 139 492 149 492 Z"></path></g><g transform="translate(-10,-10) scale(1,1)"><path fill="none" stroke="#000000" d="M 149 492 L 248 492 Q 258 492 258 502 L 258 521 Q 258 531 248 531 L 149 531 Q 139 531 139 521 L 139 502 Q 139 492 149 492 Z" stroke-miterlimit="10"></path></g><g transform="translate(-10,-10) scale(1,1)"><g><path fill="none" stroke="none"></path><text fill="#000000" stroke="none" font-family="Arial" font-size="13px" font-style="normal" font-weight="bold" text-decoration="none" x="147.5" y="511.5">Publikuj vysledky</text></g></g><g transform="translate(-10,-10) scale(1,1)"><path fill="#ffffff" stroke="none" d="M 174 463 L 237 463 Q 240 463 240 466 L 240 465 Q 240 468 237 468 L 174 468 Q 171 468 171 465 L 171 466 Q 171 463 174 463 Z"></path></g><g transform="translate(-10,-10) scale(1,1)"><path fill="#000000" stroke="none" d="M 167 456 L 230 456 Q 233 456 233 459 L 233 459 Q 233 462 230 462 L 167 462 Q 164 462 164 459 L 164 459 Q 164 456 167 456 Z"></path></g><g transform="translate(-10,-10) scale(1,1)"><path fill="none" stroke="#000000" d="M 198.58333333333334 320 L 199 335 L 198.1764705882353 349" stroke-miterlimit="10"></path></g><g transform="translate(-10,-10) scale(1,1)"><path fill="none" stroke="#000000" d="M 194.57098970505447 338.6076707326501 L 198.1764705882353 349 L 202.97549710356623 339.1020535207978" stroke-miterlimit="10"></path></g><g transform="translate(-10,-10) scale(1,1)"><path fill="none" stroke="#000000" d="M 177.78947368421052 356 L 102 371 L 101.58823529411765 385" stroke-miterlimit="10"></path></g><g transform="translate(-10,-10) scale(1,1)"><path fill="none" stroke="#000000" d="M 97.67931008591148 374.7179620834851 L 101.58823529411765 385 L 106.09470650742892 374.96547374294147" stroke-miterlimit="10"></path></g><g transform="translate(-10,-10) scale(1,1)"><path fill="none" stroke="#000000" d="M 218.6315789473684 356 L 296 371 L 295.5882352941176 385" stroke-miterlimit="10"></path></g><g transform="translate(-10,-10) scale(1,1)"><path fill="none" stroke="#000000" d="M 291.6793100859115 374.7179620834851 L 295.5882352941176 385 L 300.0947065074289 374.96547374294147" stroke-miterlimit="10"></path></g><g transform="translate(-10,-10) scale(1,1)"><path fill="none" stroke="#000000" d="M 101.58333333333333 426 L 102 441 L 181.05882352941177 455" stroke-miterlimit="10"></path></g><g transform="translate(-10,-10) scale(1,1)"><path fill="none" stroke="#000000" d="M 170.31782411394414 457.37295839763874 L 181.05882352941177 455 L 171.78585503156995 449.08290145104604" stroke-miterlimit="10"></path></g><g transform="translate(-10,-10) scale(1,1)"><path fill="none" stroke="#000000" d="M 295.5833333333333 426 L 296 441 L 215.2941176470588 455" stroke-miterlimit="10"></path></g><g transform="translate(-10,-10) scale(1,1)"><path fill="none" stroke="#000000" d="M 224.58777578025052 449.11545086660334 L 215.2941176470588 455 L 226.0267309315184 457.4106040915592" stroke-miterlimit="10"></path></g><g transform="translate(-10,-10) scale(1,1)"><path fill="none" stroke="#000000" d="M 198.21052631578948 462 L 199 477 L 198.58823529411765 491" stroke-miterlimit="10"></path></g><g transform="translate(-10,-10) scale(1,1)"><path fill="none" stroke="#000000" d="M 194.67931008591148 480.7179620834851 L 198.58823529411765 491 L 203.09470650742892 480.96547374294147" stroke-miterlimit="10"></path></g><g transform="translate(-10,-10) scale(1,1)"><path fill="#ffffff" stroke="none" d="M 193 581.5 C 193 574.59644 198.59644 569 205.5 569 C 212.40356 569 218 574.59644 218 581.5 C 218 588.40356 212.40356 594 205.5 594 C 198.59644 594 193 588.40356 193 581.5 Z"></path></g><g transform="translate(-10,-10) scale(1,1)"><path fill="none" stroke="#000000" d="M 186 574.5 C 186 567.59644 191.59644 562 198.5 562 C 205.40356 562 211 567.59644 211 574.5 C 211 581.40356 205.40356 587 198.5 587 C 191.59644 587 186 581.40356 186 574.5 Z" stroke-miterlimit="10"></path></g><g transform="translate(-10,-10) scale(1,1)"><path fill="#000000" stroke="none" d="M 191 574.5 C 191 570.357864 194.357864 567 198.5 567 C 202.642136 567 206 570.357864 206 574.5 C 206 578.642136 202.642136 582 198.5 582 C 194.357864 582 191 578.642136 191 574.5 Z"></path></g><g transform="translate(-10,-10) scale(1,1)"><path fill="none" stroke="#000000" d="M 198.58333333333334 532 L 199 547 L 198.4814814814815 561" stroke-miterlimit="10"></path></g><g transform="translate(-10,-10) scale(1,1)"><path fill="none" stroke="#000000" d="M 194.6509854165928 550.6884870219317 L 198.4814814814815 561 L 203.06425248977553 551.0000895061236" stroke-miterlimit="10"></path></g><g transform="translate(-10,-10) scale(1,1)"><path fill="none" stroke="#000000" d="M 198.58333333333334 250 L 199 265 L 198.58823529411765 279" stroke-miterlimit="10"></path></g><g transform="translate(-10,-10) scale(1,1)"><path fill="none" stroke="#000000" d="M 194.67931008591148 268.7179620834851 L 198.58823529411765 279 L 203.09470650742892 268.96547374294147" stroke-miterlimit="10"></path></g></g></svg>