<svg version="1.1" xmlns="http://www.w3.org/2000/svg" xmlns:xlink="http://www.w3.org/1999/xlink" width="510.5" height="854"><defs></defs><g><g transform="translate(-70,-10) scale(1,1)"><path fill="#ffffff" stroke="none" d="M 367 36.5 C 367 31.2532944 371.2532944 27 376.5 27 C 381.7467056 27 386 31.2532944 386 36.5 C 386 41.7467056 381.7467056 46 376.5 46 C 371.2532944 46 367 41.7467056 367 36.5 Z"></path></g><g transform="translate(-70,-10) scale(1,1)"><path fill="#000000" stroke="none" d="M 360 29.5 C 360 24.2532944 364.2532944 20 369.5 20 C 374.7467056 20 379 24.2532944 379 29.5 C 379 34.7467056 374.7467056 39 369.5 39 C 364.2532944 39 360 34.7467056 360 29.5 Z"></path></g><g transform="translate(-70,-10) scale(1,1)"><path fill="#C0C0C0" stroke="none" d="M 336.5 77 L 416.5 77 Q 426.5 77 426.5 87 L 426.5 106 Q 426.5 116 416.5 116 L 336.5 116 Q 326.5 116 326.5 106 L 326.5 87 Q 326.5 77 336.5 77 Z" opacity="0.2"></path></g><g transform="translate(-70,-10) scale(1,1)"><path fill="#ffffff" stroke="none" d="M 329.5 70 L 409.5 70 Q 419.5 70 419.5 80 L 419.5 99 Q 419.5 109 409.5 109 L 329.5 109 Q 319.5 109 319.5 99 L 319.5 80 Q 319.5 70 329.5 70 Z"></path></g><g transform="translate(-70,-10) scale(1,1)"><path fill="none" stroke="#000000" d="M 329.5 70 L 409.5 70 Q 419.5 70 419.5 80 L 419.5 99 Q 419.5 109 409.5 109 L 329.5 109 Q 319.5 109 319.5 99 L 319.5 80 Q 319.5 70 329.5 70 Z" stroke-miterlimit="10"></path></g><g transform="translate(-70,-10) scale(1,1)"><g><path fill="none" stroke="none"></path><text fill="#000000" stroke="none" font-family="Arial" font-size="13px" font-style="normal" font-weight="bold" text-decoration="none" x="329.5" y="89.5">Načítaj model</text></g></g><g transform="translate(-70,-10) scale(1,1)"><path fill="none" stroke="#000000" d="M 369.4230769230769 40 L 370 55 L 369.5882352941176 69" stroke-miterlimit="10"></path></g><g transform="translate(-70,-10) scale(1,1)"><path fill="none" stroke="#000000" d="M 365.6793100859115 58.71796208348508 L 369.5882352941176 69 L 374.0947065074289 58.96547374294149" stroke-miterlimit="10"></path></g><g transform="translate(-70,-10) scale(1,1)"><path fill="#C0C0C0" stroke="none" d="M 275.5 147 L 477.5 147 Q 487.5 147 487.5 157 L 487.5 176 Q 487.5 186 477.5 186 L 275.5 186 Q 265.5 186 265.5 176 L 265.5 157 Q 265.5 147 275.5 147 Z" opacity="0.2"></path></g><g transform="translate(-70,-10) scale(1,1)"><path fill="#ffffff" stroke="none" d="M 268.5 140 L 470.5 140 Q 480.5 140 480.5 150 L 480.5 169 Q 480.5 179 470.5 179 L 268.5 179 Q 258.5 179 258.5 169 L 258.5 150 Q 258.5 140 268.5 140 Z"></path></g><g transform="translate(-70,-10) scale(1,1)"><path fill="none" stroke="#000000" d="M 268.5 140 L 470.5 140 Q 480.5 140 480.5 150 L 480.5 169 Q 480.5 179 470.5 179 L 268.5 179 Q 258.5 179 258.5 169 L 258.5 150 Q 258.5 140 268.5 140 Z" stroke-miterlimit="10"></path></g><g transform="translate(-70,-10) scale(1,1)"><g><path fill="none" stroke="none"></path><text fill="#000000" stroke="none" font-family="Arial" font-size="13px" font-style="normal" font-weight="bold" text-decoration="none" x="270" y="159.5">Načítaj vstupy potrebné pre model</text></g></g><g transform="translate(-70,-10) scale(1,1)"><path fill="none" stroke="#000000" d="M 369.5833333333333 110 L 370 125 L 369.5882352941176 139" stroke-miterlimit="10"></path></g><g transform="translate(-70,-10) scale(1,1)"><path fill="none" stroke="#000000" d="M 365.6793100859115 128.71796208348508 L 369.5882352941176 139 L 374.0947065074289 128.9654737429415" stroke-miterlimit="10"></path></g><g transform="translate(-70,-10) scale(1,1)"><path fill="#C0C0C0" stroke="none" d="M 325 759 L 436 759 Q 446 759 446 769 L 446 788 Q 446 798 436 798 L 325 798 Q 315 798 315 788 L 315 769 Q 315 759 325 759 Z" opacity="0.2"></path></g><g transform="translate(-70,-10) scale(1,1)"><path fill="#ffffff" stroke="none" d="M 318 752 L 429 752 Q 439 752 439 762 L 439 781 Q 439 791 429 791 L 318 791 Q 308 791 308 781 L 308 762 Q 308 752 318 752 Z"></path></g><g transform="translate(-70,-10) scale(1,1)"><path fill="none" stroke="#000000" d="M 318 752 L 429 752 Q 439 752 439 762 L 439 781 Q 439 791 429 791 L 318 791 Q 308 791 308 781 L 308 762 Q 308 752 318 752 Z" stroke-miterlimit="10"></path></g><g transform="translate(-70,-10) scale(1,1)"><g><path fill="none" stroke="none"></path><text fill="#000000" stroke="none" font-family="Arial" font-size="13px" font-style="normal" font-weight="bold" text-decoration="none" x="322.5" y="771.5">Publikuj predikciu</text></g></g><g transform="translate(-70,-10) scale(1,1)"><path fill="#ffffff" stroke="none" d="M 368 848.5 C 368 841.59644 373.59644 836 380.5 836 C 387.40356 836 393 841.59644 393 848.5 C 393 855.40356 387.40356 861 380.5 861 C 373.59644 861 368 855.40356 368 848.5 Z"></path></g><g transform="translate(-70,-10) scale(1,1)"><path fill="none" stroke="#000000" d="M 361 841.5 C 361 834.59644 366.59644 829 373.5 829 C 380.40356 829 386 834.59644 386 841.5 C 386 848.40356 380.40356 854 373.5 854 C 366.59644 854 361 848.40356 361 841.5 Z" stroke-miterlimit="10"></path></g><g transform="translate(-70,-10) scale(1,1)"><path fill="#000000" stroke="none" d="M 366 841.5 C 366 837.357864 369.357864 834 373.5 834 C 377.642136 834 381 837.357864 381 841.5 C 381 845.642136 377.642136 849 373.5 849 C 369.357864 849 366 845.642136 366 841.5 Z"></path></g><g transform="translate(-70,-10) scale(1,1)"><path fill="none" stroke="#000000" d="M 373.5833333333333 792 L 374 807 L 373.38235294117646 828" stroke-miterlimit="10"></path></g><g transform="translate(-70,-10) scale(1,1)"><path fill="none" stroke="#000000" d="M 369.4734277329703 817.7179620834851 L 373.38235294117646 828 L 377.88882415448774 817.9654737429415" stroke-miterlimit="10"></path></g><g transform="translate(-70,-10) scale(1,1)"><path fill="#C0C0C0" stroke="none" d="M 290 323 L 463 323 Q 473 323 473 333 L 473 352 Q 473 362 463 362 L 290 362 Q 280 362 280 352 L 280 333 Q 280 323 290 323 Z" opacity="0.2"></path></g><g transform="translate(-70,-10) scale(1,1)"><path fill="#ffffff" stroke="none" d="M 283 316 L 456 316 Q 466 316 466 326 L 466 345 Q 466 355 456 355 L 283 355 Q 273 355 273 345 L 273 326 Q 273 316 283 316 Z"></path></g><g transform="translate(-70,-10) scale(1,1)"><path fill="none" stroke="#000000" d="M 283 316 L 456 316 Q 466 316 466 326 L 466 345 Q 466 355 456 355 L 283 355 Q 273 355 273 345 L 273 326 Q 273 316 283 316 Z" stroke-miterlimit="10"></path></g><g transform="translate(-70,-10) scale(1,1)"><g><path fill="none" stroke="none"></path><text fill="#000000" stroke="none" font-family="Arial" font-size="13px" font-style="normal" font-weight="bold" text-decoration="none" x="282" y="335.5">Pre každý časový posun|úsek</text></g></g><g transform="translate(-70,-10) scale(1,1)"><path fill="#C0C0C0" stroke="none" d="M 315.5 217 L 437.5 217 Q 447.5 217 447.5 227 L 447.5 246 Q 447.5 256 437.5 256 L 315.5 256 Q 305.5 256 305.5 246 L 305.5 227 Q 305.5 217 315.5 217 Z" opacity="0.2"></path></g><g transform="translate(-70,-10) scale(1,1)"><path fill="#ffffff" stroke="none" d="M 308.5 210 L 430.5 210 Q 440.5 210 440.5 220 L 440.5 239 Q 440.5 249 430.5 249 L 308.5 249 Q 298.5 249 298.5 239 L 298.5 220 Q 298.5 210 308.5 210 Z"></path></g><g transform="translate(-70,-10) scale(1,1)"><path fill="none" stroke="#000000" d="M 308.5 210 L 430.5 210 Q 440.5 210 440.5 220 L 440.5 239 Q 440.5 249 430.5 249 L 308.5 249 Q 298.5 249 298.5 239 L 298.5 220 Q 298.5 210 308.5 210 Z" stroke-miterlimit="10"></path></g><g transform="translate(-70,-10) scale(1,1)"><g><path fill="none" stroke="none"></path><text fill="#000000" stroke="none" font-family="Arial" font-size="13px" font-style="normal" font-weight="bold" text-decoration="none" x="308.5" y="229.5">Zvoľ granularitu času</text></g></g><g transform="translate(-70,-10) scale(1,1)"><path fill="#C0C0C0" stroke="none" d="M 185.5 429 L 567.5 429 Q 577.5 429 577.5 439 L 577.5 458 Q 577.5 468 567.5 468 L 185.5 468 Q 175.5 468 175.5 458 L 175.5 439 Q 175.5 429 185.5 429 Z" opacity="0.2"></path></g><g transform="translate(-70,-10) scale(1,1)"><path fill="#ffffff" stroke="none" d="M 178.5 422 L 560.5 422 Q 570.5 422 570.5 432 L 570.5 451 Q 570.5 461 560.5 461 L 178.5 461 Q 168.5 461 168.5 451 L 168.5 432 Q 168.5 422 178.5 422 Z"></path></g><g transform="translate(-70,-10) scale(1,1)"><path fill="none" stroke="#000000" d="M 178.5 422 L 560.5 422 Q 570.5 422 570.5 432 L 570.5 451 Q 570.5 461 560.5 461 L 178.5 461 Q 168.5 461 168.5 451 L 168.5 432 Q 168.5 422 178.5 422 Z" stroke-miterlimit="10"></path></g><g transform="translate(-70,-10) scale(1,1)"><g><path fill="none" stroke="none"></path><text fill="#000000" stroke="none" font-family="Arial" font-size="13px" font-style="normal" font-weight="bold" text-decoration="none" x="186.5" y="441.5">Pre každý model zisti jeho presnosť v danom časovom posune</text></g></g><g transform="translate(-70,-10) scale(1,1)"><path fill="#C0C0C0" stroke="none" d="M 199 499 L 554 499 Q 564 499 564 509 L 564 528 Q 564 538 554 538 L 199 538 Q 189 538 189 528 L 189 509 Q 189 499 199 499 Z" opacity="0.2"></path></g><g transform="translate(-70,-10) scale(1,1)"><path fill="#ffffff" stroke="none" d="M 192 492 L 547 492 Q 557 492 557 502 L 557 521 Q 557 531 547 531 L 192 531 Q 182 531 182 521 L 182 502 Q 182 492 192 492 Z"></path></g><g transform="translate(-70,-10) scale(1,1)"><path fill="none" stroke="#000000" d="M 192 492 L 547 492 Q 557 492 557 502 L 557 521 Q 557 531 547 531 L 192 531 Q 182 531 182 521 L 182 502 Q 182 492 192 492 Z" stroke-miterlimit="10"></path></g><g transform="translate(-70,-10) scale(1,1)"><g><path fill="none" stroke="none"></path><text fill="#000000" stroke="none" font-family="Arial" font-size="13px" font-style="normal" font-weight="bold" text-decoration="none" x="201" y="511.5">Zoraď modely podľa váhovaného súčtu priority a presnosti</text></g></g><g transform="translate(-70,-10) scale(1,1)"><path fill="#C0C0C0" stroke="none" d="M 291 569 L 462 569 Q 472 569 472 579 L 472 598 Q 472 608 462 608 L 291 608 Q 281 608 281 598 L 281 579 Q 281 569 291 569 Z" opacity="0.2"></path></g><g transform="translate(-70,-10) scale(1,1)"><path fill="#ffffff" stroke="none" d="M 284 562 L 455 562 Q 465 562 465 572 L 465 591 Q 465 601 455 601 L 284 601 Q 274 601 274 591 L 274 572 Q 274 562 284 562 Z"></path></g><g transform="translate(-70,-10) scale(1,1)"><path fill="none" stroke="#000000" d="M 284 562 L 455 562 Q 465 562 465 572 L 465 591 Q 465 601 455 601 L 284 601 Q 274 601 274 591 L 274 572 Q 274 562 284 562 Z" stroke-miterlimit="10"></path></g><g transform="translate(-70,-10) scale(1,1)"><g><path fill="none" stroke="none"></path><text fill="#000000" stroke="none" font-family="Arial" font-size="13px" font-style="normal" font-weight="bold" text-decoration="none" x="285" y="581.5">Vyber model ktorý je najlepší</text></g></g><g transform="translate(-70,-10) scale(1,1)"><path fill="#ffffff" stroke="none" d="M 345 393 L 408 393 Q 411 393 411 396 L 411 395 Q 411 398 408 398 L 345 398 Q 342 398 342 395 L 342 396 Q 342 393 345 393 Z"></path></g><g transform="translate(-70,-10) scale(1,1)"><path fill="#000000" stroke="none" d="M 338 386 L 401 386 Q 404 386 404 389 L 404 389 Q 404 392 401 392 L 338 392 Q 335 392 335 389 L 335 389 Q 335 386 338 386 Z"></path></g><g transform="translate(-70,-10) scale(1,1)"><path fill="none" stroke="#000000" d="M 369.5833333333333 356 L 370 371 L 369.1764705882353 385" stroke-miterlimit="10"></path></g><g transform="translate(-70,-10) scale(1,1)"><path fill="none" stroke="#000000" d="M 365.5709897050545 374.6076707326501 L 369.1764705882353 385 L 373.9754971035662 375.1020535207978" stroke-miterlimit="10"></path></g><g transform="translate(-70,-10) scale(1,1)"><path fill="none" stroke="#000000" d="M 369.2105263157895 392 L 370 407 L 369.5882352941176 421" stroke-miterlimit="10"></path></g><g transform="translate(-70,-10) scale(1,1)"><path fill="none" stroke="#000000" d="M 365.6793100859115 410.7179620834851 L 369.5882352941176 421 L 374.0947065074289 410.96547374294147" stroke-miterlimit="10"></path></g><g transform="translate(-70,-10) scale(1,1)"><path fill="none" stroke="#000000" d="M 369.5833333333333 462 L 370 477 L 369.5882352941176 491" stroke-miterlimit="10"></path></g><g transform="translate(-70,-10) scale(1,1)"><path fill="none" stroke="#000000" d="M 365.6793100859115 480.7179620834851 L 369.5882352941176 491 L 374.0947065074289 480.96547374294147" stroke-miterlimit="10"></path></g><g transform="translate(-70,-10) scale(1,1)"><path fill="none" stroke="#000000" d="M 369.5833333333333 532 L 370 547 L 369.5882352941176 561" stroke-miterlimit="10"></path></g><g transform="translate(-70,-10) scale(1,1)"><path fill="none" stroke="#000000" d="M 365.6793100859115 550.7179620834851 L 369.5882352941176 561 L 374.0947065074289 550.9654737429415" stroke-miterlimit="10"></path></g><g transform="translate(-70,-10) scale(1,1)"><path fill="#ffffff" stroke="none" d="M 345 287 L 408 287 Q 411 287 411 290 L 411 289 Q 411 292 408 292 L 345 292 Q 342 292 342 289 L 342 290 Q 342 287 345 287 Z"></path></g><g transform="translate(-70,-10) scale(1,1)"><path fill="#000000" stroke="none" d="M 338 280 L 401 280 Q 404 280 404 283 L 404 283 Q 404 286 401 286 L 338 286 Q 335 286 335 283 L 335 283 Q 335 280 338 280 Z"></path></g><g transform="translate(-70,-10) scale(1,1)"><path fill="none" stroke="#000000" d="M 369.2105263157895 286 L 370 301 L 369.5882352941176 315" stroke-miterlimit="10"></path></g><g transform="translate(-70,-10) scale(1,1)"><path fill="none" stroke="#000000" d="M 365.6793100859115 304.7179620834851 L 369.5882352941176 315 L 374.0947065074289 304.96547374294147" stroke-miterlimit="10"></path></g><g transform="translate(-70,-10) scale(1,1)"><path fill="none" stroke="#000000" d="M 369.5833333333333 250 L 370 265 L 369.1764705882353 279" stroke-miterlimit="10"></path></g><g transform="translate(-70,-10) scale(1,1)"><path fill="none" stroke="#000000" d="M 365.5709897050545 268.6076707326501 L 369.1764705882353 279 L 373.9754971035662 269.1020535207978" stroke-miterlimit="10"></path></g><g transform="translate(-70,-10) scale(1,1)"><path fill="none" stroke="#000000" d="M 369.5833333333333 180 L 370 195 L 369.5882352941176 209" stroke-miterlimit="10"></path></g><g transform="translate(-70,-10) scale(1,1)"><path fill="none" stroke="#000000" d="M 365.6793100859115 198.71796208348508 L 369.5882352941176 209 L 374.0947065074289 198.9654737429415" stroke-miterlimit="10"></path></g><g transform="translate(-70,-10) scale(1,1)"><path fill="#C0C0C0" stroke="none" d="M 225 631 L 524 631 Q 534 631 534 641 L 534 660 Q 534 670 524 670 L 225 670 Q 215 670 215 660 L 215 641 Q 215 631 225 631 Z" opacity="0.2"></path></g><g transform="translate(-70,-10) scale(1,1)"><path fill="#ffffff" stroke="none" d="M 218 624 L 517 624 Q 527 624 527 634 L 527 653 Q 527 663 517 663 L 218 663 Q 208 663 208 653 L 208 634 Q 208 624 218 624 Z"></path></g><g transform="translate(-70,-10) scale(1,1)"><path fill="none" stroke="#000000" d="M 218 624 L 517 624 Q 527 624 527 634 L 527 653 Q 527 663 517 663 L 218 663 Q 208 663 208 653 L 208 634 Q 208 624 218 624 Z" stroke-miterlimit="10"></path></g><g transform="translate(-70,-10) scale(1,1)"><g><path fill="none" stroke="none"></path><text fill="#000000" stroke="none" font-family="Arial" font-size="13px" font-style="normal" font-weight="bold" text-decoration="none" x="224.5" y="643.5">Vypočítaj hodnotu modelu a zapíš ju do predikcie</text></g></g><g transform="translate(-70,-10) scale(1,1)"><path fill="none" stroke="#000000" d="M 368.3225806451613 602 L 367.64516129032256 623" stroke-miterlimit="10"></path></g><g transform="translate(-70,-10) scale(1,1)"><path fill="none" stroke="#000000" d="M 363.76548979024716 612.7068882716885 L 367.64516129032256 623 L 372.18014836644284 612.9783288709207" stroke-miterlimit="10"></path></g><g transform="translate(-70,-10) scale(1,1)"><path fill="#ffffff" stroke="none" d="M 346 687 L 409 687 Q 412 687 412 690 L 412 689 Q 412 692 409 692 L 346 692 Q 343 692 343 689 L 343 690 Q 343 687 346 687 Z"></path></g><g transform="translate(-70,-10) scale(1,1)"><path fill="#000000" stroke="none" d="M 339 680 L 402 680 Q 405 680 405 683 L 405 683 Q 405 686 402 686 L 339 686 Q 336 686 336 683 L 336 683 Q 336 680 339 680 Z"></path></g><g transform="translate(-70,-10) scale(1,1)"><path fill="#ffffff" stroke="none" d="M 346 711 L 409 711 Q 412 711 412 714 L 412 713 Q 412 716 409 716 L 346 716 Q 343 716 343 713 L 343 714 Q 343 711 346 711 Z"></path></g><g transform="translate(-70,-10) scale(1,1)"><path fill="#000000" stroke="none" d="M 339 704 L 402 704 Q 405 704 405 707 L 405 707 Q 405 710 402 710 L 339 710 Q 336 710 336 707 L 336 707 Q 336 704 339 704 Z"></path></g><g transform="translate(-70,-10) scale(1,1)"><path fill="none" stroke="#000000" d="M 368.61538461538464 664 L 369.7692307692308 679" stroke-miterlimit="10"></path></g><g transform="translate(-70,-10) scale(1,1)"><path fill="none" stroke="#000000" d="M 364.79267062791274 669.1901147223913 L 369.7692307692308 679 L 373.1869077487814 668.5444041746322" stroke-miterlimit="10"></path></g><g transform="translate(-70,-10) scale(1,1)"><path fill="none" stroke="#000000" d="M 370 686 L 370 703" stroke-miterlimit="10"></path></g><g transform="translate(-70,-10) scale(1,1)"><path fill="none" stroke="#000000" d="M 365.790482243984 692.8373251423759 L 370 703 L 374.209517756016 692.8373251423759" stroke-miterlimit="10"></path></g><g transform="translate(-70,-10) scale(1,1)"><path fill="none" stroke="#000000" d="M 335 388 L 136 388 L 136 682 L 336 682" stroke-miterlimit="10"></path></g><g transform="translate(-70,-10) scale(1,1)"><path fill="none" stroke="#000000" d="M 325.83732514237585 686.209517756016 L 336 682 L 325.83732514237585 677.790482243984" stroke-miterlimit="10"></path></g><g transform="translate(-70,-10) scale(1,1)"><path fill="none" stroke="#000000" d="M 335 284 L 80 284 L 80 708 L 336 708" stroke-miterlimit="10"></path></g><g transform="translate(-70,-10) scale(1,1)"><path fill="none" stroke="#000000" d="M 325.83732514237585 712.209517756016 L 336 708 L 325.83732514237585 703.790482243984" stroke-miterlimit="10"></path></g><g transform="translate(-70,-10) scale(1,1)"><path fill="none" stroke="#000000" d="M 370.18461538461537 710 L 372.0769230769231 751" stroke-miterlimit="10"></path></g><g transform="translate(-70,-10) scale(1,1)"><path fill="none" stroke="#000000" d="M 367.4033339282028 741.0422108644055 L 372.0769230769231 751 L 375.8134167207877 740.6540531970554" stroke-miterlimit="10"></path></g></g></svg>