<svg version="1.1" xmlns="http://www.w3.org/2000/svg" xmlns:xlink="http://www.w3.org/1999/xlink" width="331" height="672"><defs></defs><g><g transform="translate(-49,-10) scale(1,1)"><rect fill="#C0C0C0" stroke="none" x="117.5" y="27" width="227" height="100" opacity="0.2"></rect></g><g transform="translate(-49,-10) scale(1,1)"><rect fill="#ffffff" stroke="none" x="110.5" y="20" width="227" height="100"></rect></g><g transform="translate(-49,-10) scale(1,1)"><path fill="none" stroke="#000000" d="M 110.5 20 L 337.5 20 L 337.5 120 L 110.5 120 L 110.5 20 Z Z" stroke-miterlimit="10"></path></g><g transform="translate(-49,-10) scale(1,1)"><path fill="none" stroke="#000000" d="M 110.5 45 L 337.5 45" stroke-miterlimit="10"></path></g><g transform="translate(-49,-10) scale(1,1)"><path fill="none" stroke="#000000" d="M 110.5 83 L 337.5 83" stroke-miterlimit="10"></path></g><g transform="translate(-49,-10) scale(1,1)"><g><path fill="none" stroke="none"></path><text fill="#000000" stroke="none" font-family="Arial" font-size="13px" font-style="normal" font-weight="bold" text-decoration="none" x="194.5" y="39.5">Regressor</text></g></g><g transform="translate(-49,-10) scale(1,1)"><g><path fill="none" stroke="none"></path><text fill="#000000" stroke="none" font-family="Arial" font-size="13px" font-style="normal" font-weight="normal" text-decoration="none" x="115.5" y="62.5">+data: Data</text></g></g><g transform="translate(-49,-10) scale(1,1)"><g><path fill="none" stroke="none"></path><text fill="#000000" stroke="none" font-family="Arial" font-size="13px" font-style="normal" font-weight="normal" text-decoration="none" x="115.5" y="77.5">+filter</text></g></g><g transform="translate(-49,-10) scale(1,1)"><g><path fill="none" stroke="none"></path><text fill="#000000" stroke="none" font-family="Arial" font-size="13px" font-style="normal" font-weight="normal" text-decoration="none" x="115.5" y="100.5">+GetGenerator(): RegressorGenerator</text></g></g><g transform="translate(-49,-10) scale(1,1)"><g><path fill="none" stroke="none"></path><text fill="#000000" stroke="none" font-family="Arial" font-size="13px" font-style="normal" font-weight="normal" text-decoration="none" x="115.5" y="115.5">+Get(time)</text></g></g><g transform="translate(-49,-10) scale(1,1)"><rect fill="#C0C0C0" stroke="none" x="67" y="527" width="92" height="57" opacity="0.2"></rect></g><g transform="translate(-49,-10) scale(1,1)"><rect fill="#ffffff" stroke="none" x="60" y="520" width="92" height="57"></rect></g><g transform="translate(-49,-10) scale(1,1)"><path fill="none" stroke="#000000" d="M 60 520 L 152 520 L 152 577 L 60 577 L 60 520 Z Z" stroke-miterlimit="10"></path></g><g transform="translate(-49,-10) scale(1,1)"><path fill="none" stroke="#000000" d="M 60 545 L 152 545" stroke-miterlimit="10"></path></g><g transform="translate(-49,-10) scale(1,1)"><path fill="none" stroke="#000000" d="M 60 568 L 152 568" stroke-miterlimit="10"></path></g><g transform="translate(-49,-10) scale(1,1)"><g><path fill="none" stroke="none"></path><text fill="#000000" stroke="none" font-family="Arial" font-size="13px" font-style="normal" font-weight="bold" text-decoration="none" x="68" y="539.5">FilterVariable</text></g></g><g transform="translate(-49,-10) scale(1,1)"><g><path fill="none" stroke="none"></path><text fill="#000000" stroke="none" font-family="Arial" font-size="13px" font-style="normal" font-weight="normal" text-decoration="none" x="65" y="562.5">+type</text></g></g><g transform="translate(-49,-10) scale(1,1)"><rect fill="#C0C0C0" stroke="none" x="180" y="526.5" width="96" height="57" opacity="0.2"></rect></g><g transform="translate(-49,-10) scale(1,1)"><rect fill="#ffffff" stroke="none" x="173" y="519.5" width="96" height="57"></rect></g><g transform="translate(-49,-10) scale(1,1)"><path fill="none" stroke="#000000" d="M 173 519.5 L 269 519.5 L 269 576.5 L 173 576.5 L 173 519.5 Z Z" stroke-miterlimit="10"></path></g><g transform="translate(-49,-10) scale(1,1)"><path fill="none" stroke="#000000" d="M 173 544.5 L 269 544.5" stroke-miterlimit="10"></path></g><g transform="translate(-49,-10) scale(1,1)"><path fill="none" stroke="#000000" d="M 173 567.5 L 269 567.5" stroke-miterlimit="10"></path></g><g transform="translate(-49,-10) scale(1,1)"><g><path fill="none" stroke="none"></path><text fill="#000000" stroke="none" font-family="Arial" font-size="13px" font-style="normal" font-weight="bold" text-decoration="none" x="180.5" y="539">FilterConstant</text></g></g><g transform="translate(-49,-10) scale(1,1)"><g><path fill="none" stroke="none"></path><text fill="#000000" stroke="none" font-family="Arial" font-size="13px" font-style="normal" font-weight="normal" text-decoration="none" x="178" y="562">+value</text></g></g><g transform="translate(-49,-10) scale(1,1)"><rect fill="#C0C0C0" stroke="none" x="118.5" y="195" width="89" height="85" opacity="0.2"></rect></g><g transform="translate(-49,-10) scale(1,1)"><rect fill="#ffffff" stroke="none" x="111.5" y="188" width="89" height="85"></rect></g><g transform="translate(-49,-10) scale(1,1)"><path fill="none" stroke="#000000" d="M 111.5 188 L 200.5 188 L 200.5 273 L 111.5 273 L 111.5 188 Z Z" stroke-miterlimit="10"></path></g><g transform="translate(-49,-10) scale(1,1)"><path fill="none" stroke="#000000" d="M 111.5 213 L 200.5 213" stroke-miterlimit="10"></path></g><g transform="translate(-49,-10) scale(1,1)"><path fill="none" stroke="#000000" d="M 111.5 251 L 200.5 251" stroke-miterlimit="10"></path></g><g transform="translate(-49,-10) scale(1,1)"><g><path fill="none" stroke="none"></path><text fill="#000000" stroke="none" font-family="Arial" font-size="13px" font-style="normal" font-weight="bold" text-decoration="none" x="141.5" y="207.5">Filter</text></g></g><g transform="translate(-49,-10) scale(1,1)"><g><path fill="none" stroke="none"></path><text fill="#000000" stroke="none" font-family="Arial" font-size="13px" font-style="normal" font-weight="normal" text-decoration="none" x="116.5" y="230.5">+inputs</text></g></g><g transform="translate(-49,-10) scale(1,1)"><g><path fill="none" stroke="none"></path><text fill="#000000" stroke="none" font-family="Arial" font-size="13px" font-style="normal" font-weight="normal" text-decoration="none" x="116.5" y="245.5">+name: string</text></g></g><g transform="translate(-49,-10) scale(1,1)"><g><path fill="none" stroke="none"></path><text fill="#000000" stroke="none" font-family="Arial" font-size="13px" font-style="normal" font-weight="normal" text-decoration="none" x="116.5" y="268.5">+compute()</text></g></g><g transform="translate(-49,-10) scale(1,1)"><rect fill="#C0C0C0" stroke="none" x="95" y="635" width="36" height="44" opacity="0.2"></rect></g><g transform="translate(-49,-10) scale(1,1)"><rect fill="#ffffff" stroke="none" x="88" y="628" width="36" height="44"></rect></g><g transform="translate(-49,-10) scale(1,1)"><path fill="none" stroke="#000000" d="M 88 628 L 124 628 L 124 672 L 88 672 L 88 628 Z Z" stroke-miterlimit="10"></path></g><g transform="translate(-49,-10) scale(1,1)"><path fill="none" stroke="#000000" d="M 88 653 L 124 653" stroke-miterlimit="10"></path></g><g transform="translate(-49,-10) scale(1,1)"><path fill="none" stroke="#000000" d="M 88 663 L 124 663" stroke-miterlimit="10"></path></g><g transform="translate(-49,-10) scale(1,1)"><g><path fill="none" stroke="none"></path><text fill="#000000" stroke="none" font-family="Arial" font-size="13px" font-style="normal" font-weight="bold" text-decoration="none" x="92.5" y="647.5">Data</text></g></g><g transform="translate(-49,-10) scale(1,1)"><rect fill="#C0C0C0" stroke="none" x="112" y="408" width="114" height="70" opacity="0.2"></rect></g><g transform="translate(-49,-10) scale(1,1)"><rect fill="#ffffff" stroke="none" x="105" y="401" width="114" height="70"></rect></g><g transform="translate(-49,-10) scale(1,1)"><path fill="none" stroke="#000000" d="M 105 401 L 219 401 L 219 471 L 105 471 L 105 401 Z Z" stroke-miterlimit="10"></path></g><g transform="translate(-49,-10) scale(1,1)"><path fill="none" stroke="#000000" d="M 105 426 L 219 426" stroke-miterlimit="10"></path></g><g transform="translate(-49,-10) scale(1,1)"><path fill="none" stroke="#000000" d="M 105 449 L 219 449" stroke-miterlimit="10"></path></g><g transform="translate(-49,-10) scale(1,1)"><g><path fill="none" stroke="none"></path><text fill="#000000" stroke="none" font-family="Arial" font-size="13px" font-style="italic" font-weight="bold" text-decoration="none" x="133" y="420.5">FilterInput</text></g></g><g transform="translate(-49,-10) scale(1,1)"><g><path fill="none" stroke="none"></path><text fill="#000000" stroke="none" font-family="Arial" font-size="13px" font-style="normal" font-weight="normal" text-decoration="none" x="110" y="443.5">+descriptiveName</text></g></g><g transform="translate(-49,-10) scale(1,1)"><g><path fill="none" stroke="none"></path><text fill="#000000" stroke="none" font-family="Arial" font-size="13px" font-style="normal" font-weight="normal" text-decoration="none" x="110" y="466.5">+getValue()</text></g></g><g transform="translate(-49,-10) scale(1,1)"><path fill="none" stroke="#000000" d="M 118 520 L 118 498 L 162 498 L 162 471" stroke-miterlimit="10"></path></g><g transform="translate(-49,-10) scale(1,1)"><path fill="#FFFFFF" stroke="none" d="M 170.41903551203197 491.3253497152483 L 162 471 L 153.58096448796803 491.3253497152483"></path></g><g transform="translate(-49,-10) scale(1,1)"><path fill="none" stroke="#000000" d="M 170.41903551203197 491.3253497152483 L 162 471 L 153.58096448796803 491.3253497152483 L 170.41903551203197 491.3253497152483" stroke-miterlimit="10"></path></g><g transform="translate(-49,-10) scale(1,1)"><path fill="none" stroke="#000000" d="M 221 519.5 L 221 498 L 162 498 L 162 471" stroke-miterlimit="10"></path></g><g transform="translate(-49,-10) scale(1,1)"><path fill="#FFFFFF" stroke="none" d="M 170.41903551203197 491.3253497152483 L 162 471 L 153.58096448796803 491.3253497152483"></path></g><g transform="translate(-49,-10) scale(1,1)"><path fill="none" stroke="#000000" d="M 170.41903551203197 491.3253497152483 L 162 471 L 153.58096448796803 491.3253497152483 L 170.41903551203197 491.3253497152483" stroke-miterlimit="10"></path></g><g transform="translate(-49,-10) scale(1,1)"><path fill="none" stroke="#000000" d="M 172 401 L 172 273" stroke-miterlimit="10"></path></g><g transform="translate(-49,-10) scale(1,1)"><path fill="#FFFFFF" stroke="none" d="M 176.209517756016 283.16267485762415 L 172 273 L 167.790482243984 283.16267485762415 L 172 295"></path></g><g transform="translate(-49,-10) scale(1,1)"><path fill="none" stroke="#000000" d="M 176.209517756016 283.16267485762415 L 172 273 L 167.790482243984 283.16267485762415 L 172 295 L 176.209517756016 283.16267485762415" stroke-miterlimit="10"></path></g><g transform="translate(-49,-10) scale(1,1)"><g><path fill="none" stroke="none"></path><text fill="#000000" stroke="none" font-family="Arial" font-size="13px" font-style="normal" font-weight="normal" text-decoration="none" x="139" y="343">+input</text></g></g><g transform="translate(-49,-10) scale(1,1)"><g><path fill="none" stroke="none"></path><text fill="#000000" stroke="none" font-family="Arial" font-size="13px" font-style="normal" font-weight="normal" text-decoration="none" x="181" y="386">1</text></g></g><g transform="translate(-49,-10) scale(1,1)"><g><path fill="none" stroke="none"></path><text fill="#000000" stroke="none" font-family="Arial" font-size="13px" font-style="normal" font-weight="normal" text-decoration="none" x="174" y="301">0..*</text></g></g><g transform="translate(-49,-10) scale(1,1)"><path fill="none" stroke="#000000" d="M 164 188 L 164 180 L 230 180 L 230 212 L 200.5 212" stroke-miterlimit="10"></path></g><g transform="translate(-49,-10) scale(1,1)"><path fill="#FFFFFF" stroke="none" d="M 210.66267485762415 207.790482243984 L 200.5 212 L 210.66267485762415 216.209517756016 L 222.5 212"></path></g><g transform="translate(-49,-10) scale(1,1)"><path fill="none" stroke="#000000" d="M 210.66267485762415 207.790482243984 L 200.5 212 L 210.66267485762415 216.209517756016 L 222.5 212 L 210.66267485762415 207.790482243984" stroke-miterlimit="10"></path></g><g transform="translate(-49,-10) scale(1,1)"><g><path fill="none" stroke="none"></path><text fill="#000000" stroke="none" font-family="Arial" font-size="13px" font-style="normal" font-weight="normal" text-decoration="none" x="173" y="173">1</text></g></g><g transform="translate(-49,-10) scale(1,1)"><g><path fill="none" stroke="none"></path><text fill="#000000" stroke="none" font-family="Arial" font-size="13px" font-style="normal" font-weight="normal" text-decoration="none" x="207.5" y="233">+input</text></g></g><g transform="translate(-49,-10) scale(1,1)"><g><path fill="none" stroke="none"></path><text fill="#000000" stroke="none" font-family="Arial" font-size="13px" font-style="normal" font-weight="normal" text-decoration="none" x="218.5" y="206">1</text></g></g><g transform="translate(-49,-10) scale(1,1)"><path fill="none" stroke="#000000" d="M 156 188 L 156 120" stroke-miterlimit="10"></path></g><g transform="translate(-49,-10) scale(1,1)"><path fill="#FFFFFF" stroke="none" d="M 160.209517756016 130.16267485762415 L 156 120 L 151.790482243984 130.16267485762415 L 156 142"></path></g><g transform="translate(-49,-10) scale(1,1)"><path fill="none" stroke="#000000" d="M 160.209517756016 130.16267485762415 L 156 120 L 151.790482243984 130.16267485762415 L 156 142 L 160.209517756016 130.16267485762415" stroke-miterlimit="10"></path></g><g transform="translate(-49,-10) scale(1,1)"><g><path fill="none" stroke="none"></path><text fill="#000000" stroke="none" font-family="Arial" font-size="13px" font-style="normal" font-weight="normal" text-decoration="none" x="125" y="160">+filter</text></g></g><g transform="translate(-49,-10) scale(1,1)"><path fill="none" stroke="#000000" d="M 104 628 L 104 577" stroke-miterlimit="10" stroke-dasharray="3"></path></g><g transform="translate(-49,-10) scale(1,1)"><path fill="none" stroke="#000000" d="M 108.20951775601598 587.1626748576241 L 104 577 L 99.79048224398402 587.1626748576241" stroke-miterlimit="10"></path></g><g transform="translate(-49,-10) scale(1,1)"><g><path fill="none" stroke="none"></path><text fill="#000000" stroke="none" font-family="Arial" font-size="13px" font-style="normal" font-weight="normal" text-decoration="none" x="59" y="608">+goes into</text></g></g><g transform="translate(-49,-10) scale(1,1)"><rect fill="#C0C0C0" stroke="none" x="275" y="207" width="102" height="57" opacity="0.2"></rect></g><g transform="translate(-49,-10) scale(1,1)"><rect fill="#ffffff" stroke="none" x="268" y="200" width="102" height="57"></rect></g><g transform="translate(-49,-10) scale(1,1)"><path fill="none" stroke="#000000" d="M 268 200 L 370 200 L 370 257 L 268 257 L 268 200 Z Z" stroke-miterlimit="10"></path></g><g transform="translate(-49,-10) scale(1,1)"><path fill="none" stroke="#000000" d="M 268 225 L 370 225" stroke-miterlimit="10"></path></g><g transform="translate(-49,-10) scale(1,1)"><path fill="none" stroke="#000000" d="M 268 235 L 370 235" stroke-miterlimit="10"></path></g><g transform="translate(-49,-10) scale(1,1)"><g><path fill="none" stroke="none"></path><text fill="#000000" stroke="none" font-family="Arial" font-size="13px" font-style="italic" font-weight="bold" text-decoration="none" x="276.5" y="219.5">FilterOperation</text></g></g><g transform="translate(-49,-10) scale(1,1)"><g><path fill="none" stroke="none"></path><text fill="#000000" stroke="none" font-family="Arial" font-size="13px" font-style="normal" font-weight="normal" text-decoration="none" x="273" y="252.5">+filter(*)</text></g></g><g transform="translate(-49,-10) scale(1,1)"><path fill="none" stroke="#000000" d="M 201.5 229.44171779141104 L 267 228.63803680981596" stroke-miterlimit="10"></path></g><g transform="translate(-49,-10) scale(1,1)"><path fill="none" stroke="#000000" d="M 256.8897366954667 232.9719237387756 L 267 228.63803680981596 L 256.7864434214199 224.55352190396204" stroke-miterlimit="10"></path></g><g transform="translate(-49,-10) scale(1,1)"><g><path fill="none" stroke="none"></path><text fill="#000000" stroke="none" font-family="Arial" font-size="13px" font-style="normal" font-weight="normal" text-decoration="none" x="219.5" y="248.44171779141104">1</text></g></g><g transform="translate(-49,-10) scale(1,1)"><g><path fill="none" stroke="none"></path><text fill="#000000" stroke="none" font-family="Arial" font-size="13px" font-style="normal" font-weight="normal" text-decoration="none" x="242" y="247.63803680981596">1</text></g></g></g></svg>