<svg version="1.1" xmlns="http://www.w3.org/2000/svg" xmlns:xlink="http://www.w3.org/1999/xlink" width="766.75" height="275"><defs></defs><g><g transform="translate(-10,-10) scale(1,1)"><rect fill="#C0C0C0" stroke="none" x="361.75" y="27" width="214" height="35" opacity="0.2"></rect></g><g transform="translate(-10,-10) scale(1,1)"><rect fill="#ffffff" stroke="none" x="354.75" y="20" width="214" height="35"></rect></g><g transform="translate(-10,-10) scale(1,1)"><path fill="none" stroke="#000000" d="M 354.75 20 L 568.75 20 L 568.75 55 L 354.75 55 L 354.75 20 Z Z" stroke-miterlimit="10"></path></g><g transform="translate(-10,-10) scale(1,1)"><rect fill="#ffffff" stroke="none" x="354.75" y="20" width="214" height="35"></rect></g><g transform="translate(-10,-10) scale(1,1)"><path fill="none" stroke="#000000" d="M 354.75 20 L 568.75 20 L 568.75 55 L 354.75 55 L 354.75 20 Z Z" stroke-miterlimit="10"></path></g><g transform="translate(-10,-10) scale(1,1)"><g><path fill="none" stroke="none"></path><text fill="#000000" stroke="none" font-family="Arial" font-size="13px" font-style="normal" font-weight="bold" text-decoration="none" x="369.25" y="39.5">GasAndOilRegessor: Regressor</text><path fill="none" stroke="#000000" d="M 554.25 39.5 L 369.25 39.5" stroke-miterlimit="10"></path></g></g><g transform="translate(-10,-10) scale(1,1)"><rect fill="#C0C0C0" stroke="none" x="413.75" y="93" width="110" height="24" opacity="0.2"></rect></g><g transform="translate(-10,-10) scale(1,1)"><rect fill="#ffffff" stroke="none" x="406.75" y="86" width="110" height="24"></rect></g><g transform="translate(-10,-10) scale(1,1)"><path fill="none" stroke="#000000" d="M 406.75 86 L 516.75 86 L 516.75 110 L 406.75 110 L 406.75 86 Z Z" stroke-miterlimit="10"></path></g><g transform="translate(-10,-10) scale(1,1)"><rect fill="#ffffff" stroke="none" x="406.75" y="86" width="110" height="24"></rect></g><g transform="translate(-10,-10) scale(1,1)"><path fill="none" stroke="#000000" d="M 406.75 86 L 516.75 86 L 516.75 110 L 406.75 110 L 406.75 86 Z Z" stroke-miterlimit="10"></path></g><g transform="translate(-10,-10) scale(1,1)"><g><path fill="none" stroke="none"></path><text fill="#000000" stroke="none" font-family="Arial" font-size="13px" font-style="normal" font-weight="bold" text-decoration="none" x="415.25" y="105.5">SumFilter: Filter</text><path fill="none" stroke="#000000" d="M 508.25 105.5 L 415.25 105.5" stroke-miterlimit="10"></path></g></g><g transform="translate(-10,-10) scale(1,1)"><rect fill="#C0C0C0" stroke="none" x="187.75" y="148" width="145" height="24" opacity="0.2"></rect></g><g transform="translate(-10,-10) scale(1,1)"><rect fill="#ffffff" stroke="none" x="180.75" y="141" width="145" height="24"></rect></g><g transform="translate(-10,-10) scale(1,1)"><path fill="none" stroke="#000000" d="M 180.75 141 L 325.75 141 L 325.75 165 L 180.75 165 L 180.75 141 Z Z" stroke-miterlimit="10"></path></g><g transform="translate(-10,-10) scale(1,1)"><rect fill="#ffffff" stroke="none" x="180.75" y="141" width="145" height="24"></rect></g><g transform="translate(-10,-10) scale(1,1)"><path fill="none" stroke="#000000" d="M 180.75 141 L 325.75 141 L 325.75 165 L 180.75 165 L 180.75 141 Z Z" stroke-miterlimit="10"></path></g><g transform="translate(-10,-10) scale(1,1)"><g><path fill="none" stroke="none"></path><text fill="#000000" stroke="none" font-family="Arial" font-size="13px" font-style="normal" font-weight="bold" text-decoration="none" x="190.75" y="160.5">SmoothenFilter: Filter</text><path fill="none" stroke="#000000" d="M 315.75 160.5 L 190.75 160.5" stroke-miterlimit="10"></path></g></g><g transform="translate(-10,-10) scale(1,1)"><path fill="none" stroke="#000000" d="M 461.60185185185185 85 L 462.25 71 L 461.6985294117647 56" stroke-miterlimit="10"></path></g><g transform="translate(-10,-10) scale(1,1)"><path fill="none" stroke="#000000" d="M 466.27858066664805 66.00115645826229 L 461.6985294117647 56 L 457.8652291609298 66.31047085185487" stroke-miterlimit="10"></path></g><g transform="translate(-10,-10) scale(1,1)"><path fill="none" stroke="#000000" d="M 253.36111111111111 140 L 253.75 126 L 405.75 105.46441495778046" stroke-miterlimit="10"></path></g><g transform="translate(-10,-10) scale(1,1)"><path fill="none" stroke="#000000" d="M 396.2424187708927 110.99667481898783 L 405.75 105.46441495778046 L 395.1152263770704 102.65343826114263" stroke-miterlimit="10"></path></g><g transform="translate(-10,-10) scale(1,1)"><rect fill="#C0C0C0" stroke="none" x="363.75" y="148" width="210" height="24" opacity="0.2"></rect></g><g transform="translate(-10,-10) scale(1,1)"><rect fill="#ffffff" stroke="none" x="356.75" y="141" width="210" height="24"></rect></g><g transform="translate(-10,-10) scale(1,1)"><path fill="none" stroke="#000000" d="M 356.75 141 L 566.75 141 L 566.75 165 L 356.75 165 L 356.75 141 Z Z" stroke-miterlimit="10"></path></g><g transform="translate(-10,-10) scale(1,1)"><rect fill="#ffffff" stroke="none" x="356.75" y="141" width="210" height="24"></rect></g><g transform="translate(-10,-10) scale(1,1)"><path fill="none" stroke="#000000" d="M 356.75 141 L 566.75 141 L 566.75 165 L 356.75 165 L 356.75 141 Z Z" stroke-miterlimit="10"></path></g><g transform="translate(-10,-10) scale(1,1)"><g><path fill="none" stroke="none"></path><text fill="#000000" stroke="none" font-family="Arial" font-size="13px" font-style="normal" font-weight="bold" text-decoration="none" x="373.75" y="160.5">SumOperation: FilterOperation</text><path fill="none" stroke="#000000" d="M 549.75 160.5 L 373.75 160.5" stroke-miterlimit="10"></path></g></g><g transform="translate(-10,-10) scale(1,1)"><path fill="none" stroke="#000000" d="M 461.60185185185185 140 L 462.25 126 L 461.58035714285717 111" stroke-miterlimit="10"></path></g><g transform="translate(-10,-10) scale(1,1)"><path fill="none" stroke="#000000" d="M 466.2389258233639 120.96482502851914 L 461.58035714285717 111 L 457.8282672964634 121.34030085561291" stroke-miterlimit="10"></path></g><g transform="translate(-10,-10) scale(1,1)"><rect fill="#C0C0C0" stroke="none" x="28.25" y="203" width="235" height="24" opacity="0.2"></rect></g><g transform="translate(-10,-10) scale(1,1)"><rect fill="#ffffff" stroke="none" x="21.25" y="196" width="235" height="24"></rect></g><g transform="translate(-10,-10) scale(1,1)"><path fill="none" stroke="#000000" d="M 21.25 196 L 256.25 196 L 256.25 220 L 21.25 220 L 21.25 196 Z Z" stroke-miterlimit="10"></path></g><g transform="translate(-10,-10) scale(1,1)"><rect fill="#ffffff" stroke="none" x="21.25" y="196" width="235" height="24"></rect></g><g transform="translate(-10,-10) scale(1,1)"><path fill="none" stroke="#000000" d="M 21.25 196 L 256.25 196 L 256.25 220 L 21.25 220 L 21.25 196 Z Z" stroke-miterlimit="10"></path></g><g transform="translate(-10,-10) scale(1,1)"><g><path fill="none" stroke="none"></path><text fill="#000000" stroke="none" font-family="Arial" font-size="13px" font-style="normal" font-weight="bold" text-decoration="none" x="34.75" y="215.5">SmoothenOperation: FilterOperation</text><path fill="none" stroke="#000000" d="M 242.75 215.5 L 34.75 215.5" stroke-miterlimit="10"></path></g></g><g transform="translate(-10,-10) scale(1,1)"><path fill="none" stroke="#000000" d="M 138.60185185185185 195 L 139.25 181 L 200.1875 166" stroke-miterlimit="10"></path></g><g transform="translate(-10,-10) scale(1,1)"><path fill="none" stroke="#000000" d="M 191.32554642635847 172.51657723491576 L 200.1875 166 L 189.31323658058292 164.34156848645253" stroke-miterlimit="10"></path></g><g transform="translate(-10,-10) scale(1,1)"><rect fill="#C0C0C0" stroke="none" x="294.25" y="203" width="106" height="24" opacity="0.2"></rect></g><g transform="translate(-10,-10) scale(1,1)"><rect fill="#ffffff" stroke="none" x="287.25" y="196" width="106" height="24"></rect></g><g transform="translate(-10,-10) scale(1,1)"><path fill="none" stroke="#000000" d="M 287.25 196 L 393.25 196 L 393.25 220 L 287.25 220 L 287.25 196 Z Z" stroke-miterlimit="10"></path></g><g transform="translate(-10,-10) scale(1,1)"><rect fill="#ffffff" stroke="none" x="287.25" y="196" width="106" height="24"></rect></g><g transform="translate(-10,-10) scale(1,1)"><path fill="none" stroke="#000000" d="M 287.25 196 L 393.25 196 L 393.25 220 L 287.25 220 L 287.25 196 Z Z" stroke-miterlimit="10"></path></g><g transform="translate(-10,-10) scale(1,1)"><g><path fill="none" stroke="none"></path><text fill="#000000" stroke="none" font-family="Arial" font-size="13px" font-style="normal" font-weight="bold" text-decoration="none" x="294.75" y="215.5">MaxFilter: Filter</text><path fill="none" stroke="#000000" d="M 385.75 215.5 L 294.75 215.5" stroke-miterlimit="10"></path></g></g><g transform="translate(-10,-10) scale(1,1)"><path fill="none" stroke="#000000" d="M 340.3611111111111 195 L 340.75 181 L 293.74107142857144 166" stroke-miterlimit="10"></path></g><g transform="translate(-10,-10) scale(1,1)"><path fill="none" stroke="#000000" d="M 304.7024491018324 165.0790225278893 L 293.74107142857144 166 L 302.1431653283306 173.09963506806017" stroke-miterlimit="10"></path></g><g transform="translate(-10,-10) scale(1,1)"><rect fill="#C0C0C0" stroke="none" x="27" y="258" width="210" height="24" opacity="0.2"></rect></g><g transform="translate(-10,-10) scale(1,1)"><rect fill="#ffffff" stroke="none" x="20" y="251" width="210" height="24"></rect></g><g transform="translate(-10,-10) scale(1,1)"><path fill="none" stroke="#000000" d="M 20 251 L 230 251 L 230 275 L 20 275 L 20 251 Z Z" stroke-miterlimit="10"></path></g><g transform="translate(-10,-10) scale(1,1)"><rect fill="#ffffff" stroke="none" x="20" y="251" width="210" height="24"></rect></g><g transform="translate(-10,-10) scale(1,1)"><path fill="none" stroke="#000000" d="M 20 251 L 230 251 L 230 275 L 20 275 L 20 251 Z Z" stroke-miterlimit="10"></path></g><g transform="translate(-10,-10) scale(1,1)"><g><path fill="none" stroke="none"></path><text fill="#000000" stroke="none" font-family="Arial" font-size="13px" font-style="normal" font-weight="bold" text-decoration="none" x="38" y="270.5">MaxOperation: FilterOperation</text><path fill="none" stroke="#000000" d="M 212 270.5 L 38 270.5" stroke-miterlimit="10"></path></g></g><g transform="translate(-10,-10) scale(1,1)"><path fill="none" stroke="#000000" d="M 125.24074074074075 250 L 125.5 236 L 286.25 215.016317016317" stroke-miterlimit="10"></path></g><g transform="translate(-10,-10) scale(1,1)"><path fill="none" stroke="#000000" d="M 276.71769001649375 220.50585856168735 L 286.25 215.016317016317 L 275.62794691795386 212.15764803894416" stroke-miterlimit="10"></path></g><g transform="translate(-10,-10) scale(1,1)"><rect fill="#C0C0C0" stroke="none" x="268" y="258" width="186" height="24" opacity="0.2"></rect></g><g transform="translate(-10,-10) scale(1,1)"><rect fill="#ffffff" stroke="none" x="261" y="251" width="186" height="24"></rect></g><g transform="translate(-10,-10) scale(1,1)"><path fill="none" stroke="#000000" d="M 261 251 L 447 251 L 447 275 L 261 275 L 261 251 Z Z" stroke-miterlimit="10"></path></g><g transform="translate(-10,-10) scale(1,1)"><rect fill="#ffffff" stroke="none" x="261" y="251" width="186" height="24"></rect></g><g transform="translate(-10,-10) scale(1,1)"><path fill="none" stroke="#000000" d="M 261 251 L 447 251 L 447 275 L 261 275 L 261 251 Z Z" stroke-miterlimit="10"></path></g><g transform="translate(-10,-10) scale(1,1)"><g><path fill="none" stroke="none"></path><text fill="#000000" stroke="none" font-family="Arial" font-size="13px" font-style="normal" font-weight="bold" text-decoration="none" x="276" y="270.5">varGasPrice: FilterVariable</text><path fill="none" stroke="#000000" d="M 432 270.5 L 276 270.5" stroke-miterlimit="10"></path></g></g><g transform="translate(-10,-10) scale(1,1)"><rect fill="#C0C0C0" stroke="none" x="485" y="258" width="241" height="24" opacity="0.2"></rect></g><g transform="translate(-10,-10) scale(1,1)"><rect fill="#ffffff" stroke="none" x="478" y="251" width="241" height="24"></rect></g><g transform="translate(-10,-10) scale(1,1)"><path fill="none" stroke="#000000" d="M 478 251 L 719 251 L 719 275 L 478 275 L 478 251 Z Z" stroke-miterlimit="10"></path></g><g transform="translate(-10,-10) scale(1,1)"><rect fill="#ffffff" stroke="none" x="478" y="251" width="241" height="24"></rect></g><g transform="translate(-10,-10) scale(1,1)"><path fill="none" stroke="#000000" d="M 478 251 L 719 251 L 719 275 L 478 275 L 478 251 Z Z" stroke-miterlimit="10"></path></g><g transform="translate(-10,-10) scale(1,1)"><g><path fill="none" stroke="none"></path><text fill="#000000" stroke="none" font-family="Arial" font-size="13px" font-style="normal" font-weight="bold" text-decoration="none" x="510.5" y="270.5">constMaxPrice: FilterConstant</text><path fill="none" stroke="#000000" d="M 686.5 270.5 L 510.5 270.5" stroke-miterlimit="10"></path></g></g><g transform="translate(-10,-10) scale(1,1)"><path fill="none" stroke="#000000" d="M 354.24074074074076 250 L 354.5 236 L 346.73214285714283 221" stroke-miterlimit="10"></path></g><g transform="translate(-10,-10) scale(1,1)"><path fill="none" stroke="#000000" d="M 355.1435202911192 228.08863383616284 L 346.73214285714283 221 L 347.6674638249279 231.96016307758336" stroke-miterlimit="10"></path></g><g transform="translate(-10,-10) scale(1,1)"><path fill="none" stroke="#000000" d="M 598.4814814814815 250 L 599 236 L 394.25 213.86486486486487" stroke-miterlimit="10"></path></g><g transform="translate(-10,-10) scale(1,1)"><path fill="none" stroke="#000000" d="M 404.8062496920442 210.77203566828507 L 394.25 213.86486486486487 L 403.9013562390962 219.14230010805443" stroke-miterlimit="10"></path></g><g transform="translate(-10,-10) scale(1,1)"><rect fill="#C0C0C0" stroke="none" x="604.75" y="148" width="169" height="24" opacity="0.2"></rect></g><g transform="translate(-10,-10) scale(1,1)"><rect fill="#ffffff" stroke="none" x="597.75" y="141" width="169" height="24"></rect></g><g transform="translate(-10,-10) scale(1,1)"><path fill="none" stroke="#000000" d="M 597.75 141 L 766.75 141 L 766.75 165 L 597.75 165 L 597.75 141 Z Z" stroke-miterlimit="10"></path></g><g transform="translate(-10,-10) scale(1,1)"><rect fill="#ffffff" stroke="none" x="597.75" y="141" width="169" height="24"></rect></g><g transform="translate(-10,-10) scale(1,1)"><path fill="none" stroke="#000000" d="M 597.75 141 L 766.75 141 L 766.75 165 L 597.75 165 L 597.75 141 Z Z" stroke-miterlimit="10"></path></g><g transform="translate(-10,-10) scale(1,1)"><g><path fill="none" stroke="none"></path><text fill="#000000" stroke="none" font-family="Arial" font-size="13px" font-style="normal" font-weight="bold" text-decoration="none" x="608.25" y="160.5">varOilPrice: FilterVariable</text><path fill="none" stroke="#000000" d="M 756.25 160.5 L 608.25 160.5" stroke-miterlimit="10"></path></g></g><g transform="translate(-10,-10) scale(1,1)"><path fill="none" stroke="#000000" d="M 682.3611111111111 140 L 682.75 126 L 517.75 105.16572717023675" stroke-miterlimit="10"></path></g><g transform="translate(-10,-10) scale(1,1)"><path fill="none" stroke="#000000" d="M 528.359957138582 102.26248596126803 L 517.75 105.16572717023675 L 527.305274187072 110.61519826474463" stroke-miterlimit="10"></path></g></g></svg>